<svg width="303" height="212" viewBox="0 0 303 212" fill="none" xmlns="http://www.w3.org/2000/svg">
<rect width="303" height="212" fill="black"/>
<path d="M88.3665 72.7273H93.2869V87.8409C93.2869 89.5379 92.8816 91.0227 92.071 92.2955C91.268 93.5682 90.143 94.5606 88.696 95.2727C87.2491 95.9773 85.5634 96.3295 83.6392 96.3295C81.7074 96.3295 80.018 95.9773 78.571 95.2727C77.1241 94.5606 75.9991 93.5682 75.196 92.2955C74.393 91.0227 73.9915 89.5379 73.9915 87.8409V72.7273H78.9119V87.4205C78.9119 88.3068 79.1051 89.0947 79.4915 89.7841C79.8854 90.4735 80.4384 91.0152 81.1506 91.4091C81.8627 91.803 82.6922 92 83.6392 92C84.5938 92 85.4233 91.803 86.1278 91.4091C86.84 91.0152 87.3892 90.4735 87.7756 89.7841C88.1695 89.0947 88.3665 88.3068 88.3665 87.4205V72.7273ZM97.2443 102.545V78.5455H102.017V81.4773H102.233C102.445 81.0076 102.752 80.5303 103.153 80.0455C103.563 79.553 104.093 79.1439 104.744 78.8182C105.403 78.4848 106.222 78.3182 107.199 78.3182C108.472 78.3182 109.646 78.6515 110.722 79.3182C111.797 79.9773 112.657 80.9735 113.301 82.3068C113.945 83.6326 114.267 85.2955 114.267 87.2955C114.267 89.2424 113.953 90.8864 113.324 92.2273C112.703 93.5606 111.854 94.572 110.778 95.2614C109.71 95.9432 108.513 96.2841 107.188 96.2841C106.248 96.2841 105.449 96.1288 104.79 95.8182C104.138 95.5076 103.604 95.1174 103.188 94.6477C102.771 94.1705 102.453 93.6894 102.233 93.2045H102.085V102.545H97.2443ZM101.983 87.2727C101.983 88.3106 102.127 89.2159 102.415 89.9886C102.703 90.7614 103.119 91.3636 103.665 91.7955C104.21 92.2197 104.873 92.4318 105.653 92.4318C106.441 92.4318 107.108 92.2159 107.653 91.7841C108.199 91.3447 108.612 90.7386 108.892 89.9659C109.18 89.1856 109.324 88.2879 109.324 87.2727C109.324 86.2652 109.184 85.3788 108.903 84.6136C108.623 83.8485 108.21 83.25 107.665 82.8182C107.119 82.3864 106.449 82.1705 105.653 82.1705C104.866 82.1705 104.199 82.3788 103.653 82.7955C103.116 83.2121 102.703 83.803 102.415 84.5682C102.127 85.3333 101.983 86.2348 101.983 87.2727ZM125.381 96.3409C123.593 96.3409 122.055 95.9621 120.767 95.2045C119.487 94.4394 118.502 93.3788 117.812 92.0227C117.131 90.6667 116.79 89.1061 116.79 87.3409C116.79 85.553 117.134 83.9848 117.824 82.6364C118.521 81.2803 119.509 80.2235 120.79 79.4659C122.07 78.7008 123.593 78.3182 125.358 78.3182C126.881 78.3182 128.214 78.5947 129.358 79.1477C130.502 79.7008 131.407 80.4773 132.074 81.4773C132.741 82.4773 133.108 83.6515 133.176 85H128.608C128.479 84.1288 128.138 83.428 127.585 82.8977C127.04 82.3598 126.324 82.0909 125.438 82.0909C124.688 82.0909 124.032 82.2955 123.472 82.7045C122.919 83.1061 122.487 83.6932 122.176 84.4659C121.866 85.2386 121.71 86.1742 121.71 87.2727C121.71 88.3864 121.862 89.3333 122.165 90.1136C122.475 90.8939 122.911 91.4886 123.472 91.8977C124.032 92.3068 124.688 92.5114 125.438 92.5114C125.991 92.5114 126.487 92.3977 126.926 92.1705C127.373 91.9432 127.741 91.6136 128.028 91.1818C128.324 90.7424 128.517 90.2159 128.608 89.6023H133.176C133.1 90.9356 132.737 92.1098 132.085 93.125C131.441 94.1326 130.551 94.9205 129.415 95.4886C128.278 96.0568 126.934 96.3409 125.381 96.3409ZM144.162 96.3409C142.397 96.3409 140.87 95.9659 139.582 95.2159C138.302 94.4583 137.313 93.4053 136.616 92.0568C135.92 90.7008 135.571 89.1288 135.571 87.3409C135.571 85.5379 135.92 83.9621 136.616 82.6136C137.313 81.2576 138.302 80.2045 139.582 79.4545C140.87 78.697 142.397 78.3182 144.162 78.3182C145.927 78.3182 147.45 78.697 148.73 79.4545C150.018 80.2045 151.01 81.2576 151.707 82.6136C152.404 83.9621 152.753 85.5379 152.753 87.3409C152.753 89.1288 152.404 90.7008 151.707 92.0568C151.01 93.4053 150.018 94.4583 148.73 95.2159C147.45 95.9659 145.927 96.3409 144.162 96.3409ZM144.185 92.5909C144.988 92.5909 145.658 92.3636 146.196 91.9091C146.734 91.447 147.139 90.8182 147.412 90.0227C147.692 89.2273 147.832 88.322 147.832 87.3068C147.832 86.2917 147.692 85.3864 147.412 84.5909C147.139 83.7955 146.734 83.1667 146.196 82.7045C145.658 82.2424 144.988 82.0114 144.185 82.0114C143.374 82.0114 142.692 82.2424 142.139 82.7045C141.594 83.1667 141.181 83.7955 140.901 84.5909C140.628 85.3864 140.491 86.2917 140.491 87.3068C140.491 88.322 140.628 89.2273 140.901 90.0227C141.181 90.8182 141.594 91.447 142.139 91.9091C142.692 92.3636 143.374 92.5909 144.185 92.5909ZM155.901 96V78.5455H160.514V81.625H160.719C161.082 80.6023 161.688 79.7955 162.537 79.2045C163.385 78.6136 164.401 78.3182 165.582 78.3182C166.779 78.3182 167.798 78.6174 168.639 79.2159C169.48 79.8068 170.041 80.6098 170.321 81.625H170.503C170.859 80.625 171.503 79.8258 172.435 79.2273C173.374 78.6212 174.484 78.3182 175.764 78.3182C177.393 78.3182 178.715 78.8371 179.73 79.875C180.753 80.9053 181.264 82.3674 181.264 84.2614V96H176.435V85.2159C176.435 84.2462 176.177 83.5189 175.662 83.0341C175.147 82.5492 174.503 82.3068 173.73 82.3068C172.851 82.3068 172.166 82.5871 171.673 83.1477C171.181 83.7008 170.935 84.4318 170.935 85.3409V96H166.241V85.1136C166.241 84.2576 165.995 83.5758 165.503 83.0682C165.018 82.5606 164.378 82.3068 163.582 82.3068C163.045 82.3068 162.56 82.4432 162.128 82.7159C161.704 82.9811 161.366 83.3561 161.116 83.8409C160.866 84.3182 160.741 84.8788 160.741 85.5227V96H155.901ZM185.088 96V78.5455H189.929V96H185.088ZM187.52 76.2955C186.8 76.2955 186.183 76.0568 185.668 75.5795C185.16 75.0947 184.906 74.5152 184.906 73.8409C184.906 73.1742 185.16 72.6023 185.668 72.125C186.183 71.6402 186.8 71.3977 187.52 71.3977C188.24 71.3977 188.853 71.6402 189.361 72.125C189.876 72.6023 190.134 73.1742 190.134 73.8409C190.134 74.5152 189.876 75.0947 189.361 75.5795C188.853 76.0568 188.24 76.2955 187.52 76.2955ZM198.648 85.9091V96H193.807V78.5455H198.42V81.625H198.625C199.011 80.6098 199.659 79.8068 200.568 79.2159C201.477 78.6174 202.58 78.3182 203.875 78.3182C205.087 78.3182 206.144 78.5833 207.045 79.1136C207.947 79.6439 208.648 80.4015 209.148 81.3864C209.648 82.3636 209.898 83.5303 209.898 84.8864V96H205.057V85.75C205.064 84.6818 204.792 83.8485 204.239 83.25C203.686 82.6439 202.924 82.3409 201.955 82.3409C201.303 82.3409 200.727 82.4811 200.227 82.7614C199.735 83.0417 199.348 83.4508 199.068 83.9886C198.795 84.5189 198.655 85.1591 198.648 85.9091ZM221.577 102.909C220.009 102.909 218.664 102.693 217.543 102.261C216.429 101.837 215.543 101.258 214.884 100.523C214.224 99.7879 213.796 98.9621 213.599 98.0455L218.077 97.4432C218.213 97.7917 218.429 98.1174 218.724 98.4205C219.02 98.7235 219.41 98.9659 219.895 99.1477C220.387 99.3371 220.986 99.4318 221.69 99.4318C222.743 99.4318 223.611 99.1742 224.293 98.6591C224.982 98.1515 225.327 97.2992 225.327 96.1023V92.9091H225.122C224.91 93.3939 224.592 93.8523 224.168 94.2841C223.743 94.7159 223.198 95.0682 222.531 95.3409C221.865 95.6136 221.069 95.75 220.145 95.75C218.834 95.75 217.641 95.447 216.565 94.8409C215.497 94.2273 214.645 93.2917 214.009 92.0341C213.38 90.7689 213.065 89.1705 213.065 87.2386C213.065 85.2614 213.387 83.6098 214.031 82.2841C214.675 80.9583 215.531 79.9659 216.599 79.3068C217.675 78.6477 218.853 78.3182 220.134 78.3182C221.111 78.3182 221.929 78.4848 222.588 78.8182C223.247 79.1439 223.777 79.553 224.179 80.0455C224.588 80.5303 224.902 81.0076 225.122 81.4773H225.304V78.5455H230.111V96.1705C230.111 97.6553 229.747 98.8977 229.02 99.8977C228.293 100.898 227.285 101.648 225.997 102.148C224.717 102.655 223.243 102.909 221.577 102.909ZM221.679 92.1136C222.459 92.1136 223.118 91.9205 223.656 91.5341C224.202 91.1402 224.618 90.5795 224.906 89.8523C225.202 89.1174 225.349 88.2386 225.349 87.2159C225.349 86.1932 225.205 85.3068 224.918 84.5568C224.63 83.7992 224.213 83.2121 223.668 82.7955C223.122 82.3788 222.459 82.1705 221.679 82.1705C220.884 82.1705 220.213 82.3864 219.668 82.8182C219.122 83.2424 218.709 83.8333 218.429 84.5909C218.149 85.3485 218.009 86.2235 218.009 87.2159C218.009 88.2235 218.149 89.0947 218.429 89.8295C218.717 90.5568 219.13 91.1212 219.668 91.5227C220.213 91.9167 220.884 92.1136 221.679 92.1136ZM98.179 135V111.727H107.361C109.126 111.727 110.63 112.064 111.872 112.739C113.115 113.405 114.062 114.333 114.713 115.523C115.372 116.705 115.702 118.068 115.702 119.614C115.702 121.159 115.368 122.523 114.702 123.705C114.035 124.886 113.069 125.807 111.804 126.466C110.546 127.125 109.024 127.455 107.236 127.455H101.384V123.511H106.44C107.387 123.511 108.168 123.348 108.781 123.023C109.402 122.689 109.865 122.231 110.168 121.648C110.478 121.057 110.634 120.379 110.634 119.614C110.634 118.841 110.478 118.167 110.168 117.591C109.865 117.008 109.402 116.557 108.781 116.239C108.16 115.913 107.372 115.75 106.418 115.75H103.099V135H98.179ZM118.807 135V117.545H123.5V120.591H123.682C124 119.508 124.534 118.689 125.284 118.136C126.034 117.576 126.898 117.295 127.875 117.295C128.117 117.295 128.379 117.311 128.659 117.341C128.939 117.371 129.186 117.413 129.398 117.466V121.761C129.17 121.693 128.856 121.633 128.455 121.58C128.053 121.527 127.686 121.5 127.352 121.5C126.64 121.5 126.004 121.655 125.443 121.966C124.89 122.269 124.451 122.693 124.125 123.239C123.807 123.784 123.648 124.413 123.648 125.125V135H118.807ZM138.974 135.341C137.209 135.341 135.683 134.966 134.395 134.216C133.115 133.458 132.126 132.405 131.429 131.057C130.732 129.701 130.384 128.129 130.384 126.341C130.384 124.538 130.732 122.962 131.429 121.614C132.126 120.258 133.115 119.205 134.395 118.455C135.683 117.697 137.209 117.318 138.974 117.318C140.74 117.318 142.262 117.697 143.543 118.455C144.83 119.205 145.823 120.258 146.52 121.614C147.217 122.962 147.565 124.538 147.565 126.341C147.565 128.129 147.217 129.701 146.52 131.057C145.823 132.405 144.83 133.458 143.543 134.216C142.262 134.966 140.74 135.341 138.974 135.341ZM138.997 131.591C139.8 131.591 140.471 131.364 141.009 130.909C141.546 130.447 141.952 129.818 142.224 129.023C142.505 128.227 142.645 127.322 142.645 126.307C142.645 125.292 142.505 124.386 142.224 123.591C141.952 122.795 141.546 122.167 141.009 121.705C140.471 121.242 139.8 121.011 138.997 121.011C138.187 121.011 137.505 121.242 136.952 121.705C136.406 122.167 135.993 122.795 135.713 123.591C135.44 124.386 135.304 125.292 135.304 126.307C135.304 127.322 135.44 128.227 135.713 129.023C135.993 129.818 136.406 130.447 136.952 130.909C137.505 131.364 138.187 131.591 138.997 131.591ZM150.713 117.545H155.554V135.864C155.554 137.212 155.289 138.303 154.759 139.136C154.228 139.97 153.467 140.58 152.474 140.966C151.49 141.352 150.312 141.545 148.94 141.545C148.774 141.545 148.615 141.542 148.463 141.534C148.304 141.534 148.137 141.53 147.963 141.523V137.739C148.092 137.746 148.205 137.75 148.304 137.75C148.395 137.758 148.493 137.761 148.599 137.761C149.38 137.761 149.925 137.595 150.236 137.261C150.554 136.936 150.713 136.443 150.713 135.784V117.545ZM153.122 115.295C152.41 115.295 151.796 115.057 151.281 114.58C150.766 114.095 150.509 113.515 150.509 112.841C150.509 112.174 150.766 111.602 151.281 111.125C151.796 110.64 152.41 110.398 153.122 110.398C153.849 110.398 154.467 110.64 154.974 111.125C155.49 111.602 155.747 112.174 155.747 112.841C155.747 113.515 155.49 114.095 154.974 114.58C154.467 115.057 153.849 115.295 153.122 115.295ZM167.386 135.341C165.591 135.341 164.045 134.977 162.75 134.25C161.462 133.515 160.47 132.477 159.773 131.136C159.076 129.788 158.727 128.193 158.727 126.352C158.727 124.557 159.076 122.981 159.773 121.625C160.47 120.269 161.451 119.212 162.716 118.455C163.989 117.697 165.481 117.318 167.193 117.318C168.345 117.318 169.417 117.504 170.409 117.875C171.409 118.239 172.28 118.788 173.023 119.523C173.773 120.258 174.356 121.182 174.773 122.295C175.189 123.402 175.398 124.697 175.398 126.182V127.511H160.659V124.511H170.841C170.841 123.814 170.689 123.197 170.386 122.659C170.083 122.121 169.663 121.701 169.125 121.398C168.595 121.087 167.977 120.932 167.273 120.932C166.538 120.932 165.886 121.102 165.318 121.443C164.758 121.777 164.318 122.227 164 122.795C163.682 123.356 163.519 123.981 163.511 124.67V127.523C163.511 128.386 163.67 129.133 163.989 129.761C164.314 130.39 164.773 130.875 165.364 131.216C165.955 131.557 166.655 131.727 167.466 131.727C168.004 131.727 168.496 131.652 168.943 131.5C169.39 131.348 169.773 131.121 170.091 130.818C170.409 130.515 170.652 130.144 170.818 129.705L175.295 130C175.068 131.076 174.602 132.015 173.898 132.818C173.201 133.614 172.299 134.235 171.193 134.682C170.095 135.121 168.826 135.341 167.386 135.341ZM186.443 135.341C184.655 135.341 183.117 134.962 181.83 134.205C180.549 133.439 179.564 132.379 178.875 131.023C178.193 129.667 177.852 128.106 177.852 126.341C177.852 124.553 178.197 122.985 178.886 121.636C179.583 120.28 180.572 119.223 181.852 118.466C183.133 117.701 184.655 117.318 186.42 117.318C187.943 117.318 189.277 117.595 190.42 118.148C191.564 118.701 192.47 119.477 193.136 120.477C193.803 121.477 194.17 122.652 194.239 124H189.67C189.542 123.129 189.201 122.428 188.648 121.898C188.102 121.36 187.386 121.091 186.5 121.091C185.75 121.091 185.095 121.295 184.534 121.705C183.981 122.106 183.549 122.693 183.239 123.466C182.928 124.239 182.773 125.174 182.773 126.273C182.773 127.386 182.924 128.333 183.227 129.114C183.538 129.894 183.973 130.489 184.534 130.898C185.095 131.307 185.75 131.511 186.5 131.511C187.053 131.511 187.549 131.398 187.989 131.17C188.436 130.943 188.803 130.614 189.091 130.182C189.386 129.742 189.58 129.216 189.67 128.602H194.239C194.163 129.936 193.799 131.11 193.148 132.125C192.504 133.133 191.614 133.92 190.477 134.489C189.341 135.057 187.996 135.341 186.443 135.341ZM206.622 117.545V121.182H196.111V117.545H206.622ZM198.497 113.364H203.338V129.636C203.338 130.083 203.406 130.432 203.543 130.682C203.679 130.924 203.868 131.095 204.111 131.193C204.361 131.292 204.649 131.341 204.974 131.341C205.202 131.341 205.429 131.322 205.656 131.284C205.884 131.239 206.058 131.205 206.179 131.182L206.94 134.784C206.698 134.86 206.357 134.947 205.918 135.045C205.478 135.152 204.944 135.216 204.315 135.239C203.149 135.284 202.126 135.129 201.247 134.773C200.376 134.417 199.698 133.864 199.213 133.114C198.728 132.364 198.49 131.417 198.497 130.273V113.364Z" fill="white"/>
</svg>
